<?xml version="1.0" encoding="utf-8"?>
<!-- Generator: Adobe Illustrator 26.3.1, SVG Export Plug-In . SVG Version: 6.00 Build 0)  -->
<svg version="1.1" id="レイヤー_1" xmlns="http://www.w3.org/2000/svg" xmlns:xlink="http://www.w3.org/1999/xlink" x="0px"
	 y="0px" viewBox="0 0 247.8 175.3" style="enable-background:new 0 0 247.8 175.3;" xml:space="preserve">
<style type="text/css">
	.st0{fill:#727171;}
</style>
<g>
	<path class="st0" d="M135.7,163.6H129c-2,0-3.7-1.7-3.7-3.7V7.8c0-2,1.7-3.7,3.7-3.7h6.8c2,0,3.7,1.7,3.7,3.7v152.1
		C139.4,161.9,137.8,163.6,135.7,163.6z"/>
	<path class="st0" d="M135.7,164.1H129c-2.3,0-4.2-1.9-4.2-4.2V7.8c0-2.3,1.9-4.2,4.2-4.2h6.8c2.3,0,4.2,1.9,4.2,4.2v152.1
		C139.9,162.2,138,164.1,135.7,164.1z M129,4.6c-1.8,0-3.2,1.4-3.2,3.2v152.1c0,1.8,1.4,3.2,3.2,3.2h6.8c1.8,0,3.2-1.4,3.2-3.2V7.8
		c0-1.8-1.4-3.2-3.2-3.2H129z"/>
</g>
<g>
	<path class="st0" d="M167.8,174.8h-122c-2.5,0-4.5-2-4.5-4.5v-5.3c0-2.5,2-4.5,4.5-4.5h122c2.5,0,4.5,2,4.5,4.5v5.3
		C172.2,172.8,170.2,174.8,167.8,174.8z"/>
	<path class="st0" d="M167.8,175.3h-122c-2.7,0-5-2.2-5-5v-5.3c0-2.7,2.2-5,5-5h122c2.7,0,5,2.2,5,5v5.3
		C172.7,173.1,170.5,175.3,167.8,175.3z M45.7,161.1c-2.2,0-4,1.8-4,4v5.3c0,2.2,1.8,4,4,4h122c2.2,0,4-1.8,4-4v-5.3
		c0-2.2-1.8-4-4-4H45.7z"/>
</g>
<g>
	<path class="st0" d="M137.7,12.4L11.6,121c-2.5,2.1-6.2,1.8-8.3-0.6l-1.4-1.6c-2.1-2.5-1.8-6.2,0.6-8.3L128.6,1.9
		c2.5-2.1,6.2-1.8,8.3,0.6l1.4,1.6C140.4,6.6,140.1,10.3,137.7,12.4z"/>
	<path class="st0" d="M7.7,122.9c-1.8,0-3.6-0.7-4.8-2.2l-1.4-1.6c-1.1-1.3-1.6-2.9-1.5-4.6c0.1-1.7,0.9-3.2,2.2-4.3L128.3,1.5
		c2.7-2.3,6.7-2,9,0.7l1.4,1.6c2.3,2.7,2,6.7-0.7,9L11.9,121.4C10.7,122.4,9.2,122.9,7.7,122.9z M132.5,1c-1.2,0-2.5,0.4-3.5,1.3
		L2.9,110.9c-2.2,1.9-2.5,5.3-0.6,7.6l1.4,1.6c0.9,1.1,2.2,1.7,3.7,1.8c1.4,0.1,2.8-0.3,3.9-1.3L137.3,12l0.3,0.4l-0.3-0.4
		c2.2-1.9,2.5-5.3,0.6-7.6l-1.4-1.6C135.5,1.6,134,1,132.5,1z"/>
</g>
<g>
	<path class="st0" d="M213.5,156.7c1,9.7-1.8,9.1-7.6,17c-3.5,4.8-12.6-7.3-10.7-14.9c2.6-10.4,5.9-15.3,10.7-14.9
		C211.7,144.5,212.6,148.2,213.5,156.7z"/>
	<path class="st0" d="M203.8,175.3c-0.5,0-1.1-0.1-1.7-0.4c-4.3-2-8.8-10.5-7.4-16.2c2.7-10.9,6.2-15.7,11.2-15.3
		c6.4,0.6,7.2,5,8.1,13.2l0,0c0.8,7.4-0.6,9-3.8,12.5c-1.1,1.2-2.4,2.7-3.9,4.8C205.6,174.9,204.8,175.3,203.8,175.3z M205.3,144.4
		c-4.1,0-7.2,4.6-9.6,14.5c-1.3,5.5,3.3,13.4,6.9,15c1.3,0.6,2.2,0.4,2.9-0.6c1.5-2.1,2.9-3.6,4-4.8c3-3.4,4.3-4.8,3.5-11.8l0,0
		c-0.9-8.6-1.8-11.8-7.2-12.4C205.6,144.4,205.5,144.4,205.3,144.4z"/>
</g>
<g>
	<path class="st0" d="M246.8,159.1c-4,10.7-6.2,15-8.5,14.9c-3.8-0.3-8.2,5.2-10.7-14.9c-1.5-11.7,6.5-14.5,10.7-14.9
		C242.9,143.8,249.2,152.6,246.8,159.1z"/>
	<path class="st0" d="M234.4,175c-0.8,0-1.6-0.2-2.3-0.7c-2.3-1.6-3.8-6.3-4.9-15.1c-0.6-4.6,0.2-8.3,2.4-11
		c2.7-3.4,6.7-4.2,8.8-4.4c2.1-0.2,4.5,1.2,6.5,3.8c2.1,2.8,4.1,7.5,2.5,11.7l0,0c-4.1,10.9-6.2,15.4-9,15.2c-0.6,0-1.3,0.1-2,0.2
		C235.7,174.9,235,175,234.4,175z M238.7,144.7c-0.1,0-0.2,0-0.3,0c-1.6,0.2-5.6,0.9-8.1,4.1c-2,2.5-2.7,5.9-2.1,10.3
		c1,8.2,2.5,12.9,4.5,14.4c1.1,0.8,2.3,0.6,3.5,0.3c0.7-0.1,1.5-0.3,2.2-0.2c2,0.1,4.3-4.8,8-14.6l0,0c1.4-3.8-0.4-8.2-2.4-10.8
		C242.3,146,240.3,144.7,238.7,144.7z"/>
</g>
</svg>
